<svg width="940" height="846" viewBox="0 0 940 846" fill="none" xmlns="http://www.w3.org/2000/svg">
<g filter="url(#filter0_d_120_306)">
<path d="M843.985 767.763C839.008 767.74 834.107 766.631 829.684 764.525L447.93 581.069L66.0907 764.525C60.2712 767.264 53.6621 768.237 47.2071 767.306C40.7522 766.374 34.7813 763.586 30.1472 759.338C25.5131 755.091 22.4526 749.602 21.4028 743.655C20.353 737.707 21.3675 731.607 24.3015 726.223L420.356 23.357C422.99 18.7246 426.947 14.8448 431.8 12.1379C436.653 9.43095 442.216 8 447.888 8C453.559 8 459.122 9.43095 463.975 12.1379C468.828 14.8448 472.785 18.7246 475.419 23.357L871.559 726.223C873.993 730.588 875.171 735.457 874.98 740.362C874.789 745.267 873.235 750.045 870.468 754.238C867.7 758.431 863.812 761.898 859.175 764.308C854.538 766.718 849.308 767.989 843.985 768V767.763ZM447.93 511.651C452.583 511.622 457.172 512.653 461.289 514.652L750.645 653.646L447.93 116.625L145.13 653.646L434.486 514.652C438.634 512.653 443.25 511.622 447.93 511.651Z" fill="url(#paint0_linear_120_306)"/>
<path d="M843.985 767.763C839.008 767.74 834.107 766.631 829.684 764.525L447.93 581.069L66.0907 764.525C60.2712 767.264 53.6621 768.237 47.2071 767.306C40.7522 766.374 34.7813 763.586 30.1472 759.338C25.5131 755.091 22.4526 749.602 21.4028 743.655C20.353 737.707 21.3675 731.607 24.3015 726.223L420.356 23.357C422.99 18.7246 426.947 14.8448 431.8 12.1379C436.653 9.43095 442.216 8 447.888 8C453.559 8 459.122 9.43095 463.975 12.1379C468.828 14.8448 472.785 18.7246 475.419 23.357L871.559 726.223C873.993 730.588 875.171 735.457 874.98 740.362C874.789 745.267 873.235 750.045 870.468 754.238C867.7 758.431 863.812 761.898 859.175 764.308C854.538 766.718 849.308 767.989 843.985 768V767.763ZM447.93 511.651C452.583 511.622 457.172 512.653 461.289 514.652L750.645 653.646L447.93 116.625L145.13 653.646L434.486 514.652C438.634 512.653 443.25 511.622 447.93 511.651Z" fill="url(#paint1_linear_120_306)" fill-opacity="0.43"/>
<path d="M843.985 767.763C839.008 767.74 834.107 766.631 829.684 764.525L447.93 581.069L66.0907 764.525C60.2712 767.264 53.6621 768.237 47.2071 767.306C40.7522 766.374 34.7813 763.586 30.1472 759.338C25.5131 755.091 22.4526 749.602 21.4028 743.655C20.353 737.707 21.3675 731.607 24.3015 726.223L420.356 23.357C422.99 18.7246 426.947 14.8448 431.8 12.1379C436.653 9.43095 442.216 8 447.888 8C453.559 8 459.122 9.43095 463.975 12.1379C468.828 14.8448 472.785 18.7246 475.419 23.357L871.559 726.223C873.993 730.588 875.171 735.457 874.98 740.362C874.789 745.267 873.235 750.045 870.468 754.238C867.7 758.431 863.812 761.898 859.175 764.308C854.538 766.718 849.308 767.989 843.985 768V767.763ZM447.93 511.651C452.583 511.622 457.172 512.653 461.289 514.652L750.645 653.646L447.93 116.625L145.13 653.646L434.486 514.652C438.634 512.653 443.25 511.622 447.93 511.651Z" fill="url(#paint2_linear_120_306)" fill-opacity="0.67"/>
<path d="M843.985 767.763C839.008 767.74 834.107 766.631 829.684 764.525L447.93 581.069L66.0907 764.525C60.2712 767.264 53.6621 768.237 47.2071 767.306C40.7522 766.374 34.7813 763.586 30.1472 759.338C25.5131 755.091 22.4526 749.602 21.4028 743.655C20.353 737.707 21.3675 731.607 24.3015 726.223L420.356 23.357C422.99 18.7246 426.947 14.8448 431.8 12.1379C436.653 9.43095 442.216 8 447.888 8C453.559 8 459.122 9.43095 463.975 12.1379C468.828 14.8448 472.785 18.7246 475.419 23.357L871.559 726.223C873.993 730.588 875.171 735.457 874.98 740.362C874.789 745.267 873.235 750.045 870.468 754.238C867.7 758.431 863.812 761.898 859.175 764.308C854.538 766.718 849.308 767.989 843.985 768V767.763ZM447.93 511.651C452.583 511.622 457.172 512.653 461.289 514.652L750.645 653.646L447.93 116.625L145.13 653.646L434.486 514.652C438.634 512.653 443.25 511.622 447.93 511.651Z" fill="url(#paint3_linear_120_306)" fill-opacity="0.69"/>
</g>
<defs>
<filter id="filter0_d_120_306" x="0" y="0" width="940" height="846" filterUnits="userSpaceOnUse" color-interpolation-filters="sRGB">
<feFlood flood-opacity="0" result="BackgroundImageFix"/>
<feColorMatrix in="SourceAlpha" type="matrix" values="0 0 0 0 0 0 0 0 0 0 0 0 0 0 0 0 0 0 127 0" result="hardAlpha"/>
<feOffset dx="22" dy="35"/>
<feGaussianBlur stdDeviation="21.5"/>
<feComposite in2="hardAlpha" operator="out"/>
<feColorMatrix type="matrix" values="0 0 0 0 0 0 0 0 0 0 0 0 0 0 0 0 0 0 0.25 0"/>
<feBlend mode="normal" in2="BackgroundImageFix" result="effect1_dropShadow_120_306"/>
<feBlend mode="normal" in="SourceGraphic" in2="effect1_dropShadow_120_306" result="shape"/>
</filter>
<linearGradient id="paint0_linear_120_306" x1="129.398" y1="21.9377" x2="783.783" y2="761.699" gradientUnits="userSpaceOnUse">
<stop stop-color="white"/>
<stop offset="1" stop-color="#FF970A"/>
</linearGradient>
<linearGradient id="paint1_linear_120_306" x1="448" y1="8" x2="448" y2="768" gradientUnits="userSpaceOnUse">
<stop offset="0.515625" stop-color="#ED17B1"/>
<stop offset="1" stop-color="white" stop-opacity="0"/>
</linearGradient>
<linearGradient id="paint2_linear_120_306" x1="61.576" y1="685.739" x2="578.662" y2="391.397" gradientUnits="userSpaceOnUse">
<stop stop-color="#FB2C2C"/>
<stop offset="1" stop-color="#FB2C2C" stop-opacity="0"/>
</linearGradient>
<linearGradient id="paint3_linear_120_306" x1="772.5" y1="449.5" x2="652.5" y2="520.5" gradientUnits="userSpaceOnUse">
<stop stop-color="white"/>
<stop offset="1" stop-color="white" stop-opacity="0"/>
</linearGradient>
</defs>
</svg>
