<svg width="1920" height="13392" viewBox="0 0 1920 13392" fill="none" xmlns="http://www.w3.org/2000/svg">
<g clip-path="url(#clip0_127_1841)">
<rect width="1920" height="13392" fill="#040505"/>
<g opacity="0.1" filter="url(#filter0_f_127_1841)">
<ellipse rx="465.973" ry="590.11" transform="matrix(0.996517 -0.0833941 0.0477129 0.998861 111.505 12491.3)" fill="url(#paint0_linear_127_1841)"/>
</g>
<g opacity="0.1" filter="url(#filter1_f_127_1841)">
<circle cx="1728.28" cy="2494.28" r="201" transform="rotate(-3.61773 1728.28 2494.28)" fill="#FF3333"/>
</g>
<g opacity="0.1" filter="url(#filter2_f_127_1841)">
<ellipse rx="463.973" ry="542.316" transform="matrix(0.996517 -0.0833941 0.0477129 0.998861 63.2319 -39.609)" fill="url(#paint1_linear_127_1841)"/>
</g>
<g opacity="0.1" filter="url(#filter3_f_127_1841)">
<ellipse rx="463.973" ry="542.316" transform="matrix(0.996517 -0.0833941 0.0477129 0.998861 977.232 3942.39)" fill="url(#paint2_linear_127_1841)"/>
</g>
<g opacity="0.1" filter="url(#filter4_f_127_1841)">
<ellipse rx="463.973" ry="542.316" transform="matrix(0.996517 -0.0833941 0.0477129 0.998861 52.2319 11521.4)" fill="url(#paint3_linear_127_1841)"/>
</g>
<g opacity="0.1" filter="url(#filter5_f_127_1841)">
<ellipse rx="463.973" ry="542.316" transform="matrix(0.996517 -0.0833941 0.0477129 0.998861 17.2319 5587.39)" fill="url(#paint4_linear_127_1841)"/>
</g>
<g opacity="0.1" filter="url(#filter6_f_127_1841)">
<ellipse rx="463.973" ry="542.316" transform="matrix(0.996517 -0.0833941 0.0477129 0.998861 1522.23 2015.39)" fill="url(#paint5_linear_127_1841)"/>
</g>
<g opacity="0.1" filter="url(#filter7_f_127_1841)">
<ellipse rx="479.151" ry="478.486" transform="matrix(0.996517 -0.0833941 0.0477129 0.998861 258.964 13351.5)" fill="url(#paint6_linear_127_1841)"/>
</g>
<g opacity="0.14" filter="url(#filter8_f_127_1841)">
<circle cx="532.924" cy="2509.98" r="507" transform="rotate(-3.61773 532.924 2509.98)" fill="url(#paint7_linear_127_1841)"/>
</g>
<g opacity="0.1" filter="url(#filter9_f_127_1841)">
<ellipse rx="646.28" ry="618.598" transform="matrix(-0.27641 -0.96104 0.952023 -0.306028 1150.41 5436.25)" fill="url(#paint8_linear_127_1841)"/>
</g>
<g opacity="0.14" filter="url(#filter10_f_127_1841)">
<path d="M-108.7 2645.41C-97.8798 2523.47 -218.336 2466.16 -199.099 2345.27C-165.342 2133.13 190.366 2548.89 160.077 2761.56C147.384 2850.67 122.971 2906.38 57.2213 2967.77C-62.1103 3079.18 -276.779 3134.82 -359.765 2994.13C-445.042 2849.56 -123.539 2812.65 -108.7 2645.41Z" fill="#4ACFFF"/>
</g>
<g opacity="0.1" filter="url(#filter11_f_127_1841)">
<path d="M1574.93 5940.21C1453.06 5954.64 1432.38 6117.33 1309.08 6121.06C1092.71 6127.61 1393.79 5590.84 1609.66 5579.87C1700.12 5575.27 1761.47 5592.86 1840.39 5660.49C1983.64 5783.23 2100.38 6037.13 1987.61 6172.34C1871.72 6311.28 1742.07 5920.43 1574.93 5940.21Z" fill="#4ACFFF"/>
</g>
<g opacity="0.12" filter="url(#filter12_f_127_1841)">
<circle cx="878.35" cy="2648.46" r="201" transform="rotate(-3.61773 878.35 2648.46)" fill="#FF3333"/>
</g>
<g opacity="0.2" filter="url(#filter13_f_127_1841)">
<ellipse rx="256.217" ry="201.251" transform="matrix(-0.27641 -0.96104 0.952023 -0.306028 1290.18 4941.65)" fill="#FF3333"/>
</g>
<g opacity="0.2" filter="url(#filter14_f_127_1841)">
<ellipse rx="256.217" ry="201.251" transform="matrix(-0.27641 -0.96104 0.952023 -0.306028 -22.5832 4568.82)" fill="#FF3333"/>
</g>
<g opacity="0.2" filter="url(#filter15_f_127_1841)">
<circle cx="1017.92" cy="612.981" r="507" transform="rotate(-3.61773 1017.92 612.981)" fill="url(#paint9_linear_127_1841)"/>
</g>
<g opacity="0.2" filter="url(#filter16_f_127_1841)">
<ellipse rx="403.334" ry="474.448" transform="matrix(0.345884 -0.938277 0.92615 0.377155 537.917 10527.4)" fill="url(#paint10_linear_127_1841)"/>
</g>
<g opacity="0.05" filter="url(#filter17_f_127_1841)">
<ellipse rx="671.473" ry="590.11" transform="matrix(0.996517 -0.0833941 0.0477129 0.998861 1437.29 13101.4)" fill="url(#paint11_linear_127_1841)"/>
</g>
<g opacity="0.05" filter="url(#filter18_f_127_1841)">
<ellipse rx="671.473" ry="590.11" transform="matrix(0.996517 -0.0833941 0.0477129 0.998861 1795.29 1601.43)" fill="url(#paint12_linear_127_1841)"/>
</g>
<g opacity="0.2" filter="url(#filter19_f_127_1841)">
<ellipse rx="465.973" ry="590.11" transform="matrix(0.996517 -0.0833941 0.0477129 0.998861 1954.51 12051.3)" fill="url(#paint13_linear_127_1841)"/>
</g>
<g opacity="0.2" filter="url(#filter20_f_127_1841)">
<path d="M376.3 748.413C387.12 626.473 266.664 569.164 285.901 448.27C319.658 236.131 675.366 651.894 645.077 864.557C632.384 953.675 607.971 1009.38 542.221 1070.77C422.89 1182.18 208.221 1237.82 125.235 1097.13C39.9581 952.558 361.461 915.646 376.3 748.413Z" fill="#4ACFFF"/>
</g>
<g opacity="0.2" filter="url(#filter21_f_127_1841)">
<path d="M624.876 10862.1C637.659 10674.6 495.347 10586.5 518.075 10400.7C557.956 10074.5 978.206 10713.7 942.42 11040.7C927.425 11177.7 898.582 11263.3 820.903 11357.7C679.919 11529 426.3 11614.5 328.257 11398.2C227.507 11176 607.344 11119.2 624.876 10862.1Z" fill="#4ACFFF"/>
</g>
<g opacity="0.2" filter="url(#filter22_f_127_1841)">
<path d="M-216.423 10270.5C-206.9 10128.4 -312.915 10061.7 -295.984 9920.83C-266.274 9673.71 46.7879 10158 20.1301 10405.8C8.95901 10509.6 -12.5269 10574.5 -70.3939 10646C-175.419 10775.8 -364.351 10840.6 -437.387 10676.7C-512.44 10508.3 -229.483 10465.3 -216.423 10270.5Z" fill="#4ACFFF"/>
</g>
<g opacity="0.2" filter="url(#filter23_f_127_1841)">
<circle cx="1363.35" cy="751.461" r="201" transform="rotate(-3.61773 1363.35 751.461)" fill="#FF3333"/>
</g>
<g opacity="0.1" filter="url(#filter24_f_127_1841)">
<ellipse rx="237.798" ry="308.767" transform="matrix(0.996632 -0.0819978 0.0485291 0.998822 1670.98 10493.9)" fill="#FF3333"/>
</g>
<g opacity="0.2" filter="url(#filter25_f_127_1841)">
<ellipse rx="177.167" ry="233.949" transform="matrix(0.996517 -0.0833941 0.0477129 0.998861 652.288 9314.02)" fill="#FF3333"/>
</g>
<g opacity="0.2" filter="url(#filter26_f_127_1841)">
<ellipse rx="403.334" ry="474.448" transform="matrix(0.345884 -0.938277 0.92615 0.377155 1718.92 9222.38)" fill="url(#paint14_linear_127_1841)"/>
</g>
<g opacity="0.2" filter="url(#filter27_f_127_1841)">
<ellipse rx="403.334" ry="474.448" transform="matrix(0.345884 -0.938277 0.92615 0.377155 -10.0833 8978.38)" fill="url(#paint15_linear_127_1841)"/>
</g>
</g>
<defs>
<filter id="filter0_f_127_1841" x="-753.712" y="11500.6" width="1730.43" height="1981.48" filterUnits="userSpaceOnUse" color-interpolation-filters="sRGB">
<feFlood flood-opacity="0" result="BackgroundImageFix"/>
<feBlend mode="normal" in="SourceGraphic" in2="BackgroundImageFix" result="shape"/>
<feGaussianBlur stdDeviation="200" result="effect1_foregroundBlur_127_1841"/>
</filter>
<filter id="filter1_f_127_1841" x="1127.28" y="1893.28" width="1202.01" height="1202.01" filterUnits="userSpaceOnUse" color-interpolation-filters="sRGB">
<feFlood flood-opacity="0" result="BackgroundImageFix"/>
<feBlend mode="normal" in="SourceGraphic" in2="BackgroundImageFix" result="shape"/>
<feGaussianBlur stdDeviation="200" result="effect1_foregroundBlur_127_1841"/>
</filter>
<filter id="filter2_f_127_1841" x="-799.861" y="-982.711" width="1726.19" height="1886.2" filterUnits="userSpaceOnUse" color-interpolation-filters="sRGB">
<feFlood flood-opacity="0" result="BackgroundImageFix"/>
<feBlend mode="normal" in="SourceGraphic" in2="BackgroundImageFix" result="shape"/>
<feGaussianBlur stdDeviation="200" result="effect1_foregroundBlur_127_1841"/>
</filter>
<filter id="filter3_f_127_1841" x="114.139" y="2999.29" width="1726.19" height="1886.2" filterUnits="userSpaceOnUse" color-interpolation-filters="sRGB">
<feFlood flood-opacity="0" result="BackgroundImageFix"/>
<feBlend mode="normal" in="SourceGraphic" in2="BackgroundImageFix" result="shape"/>
<feGaussianBlur stdDeviation="200" result="effect1_foregroundBlur_127_1841"/>
</filter>
<filter id="filter4_f_127_1841" x="-810.861" y="10578.3" width="1726.19" height="1886.2" filterUnits="userSpaceOnUse" color-interpolation-filters="sRGB">
<feFlood flood-opacity="0" result="BackgroundImageFix"/>
<feBlend mode="normal" in="SourceGraphic" in2="BackgroundImageFix" result="shape"/>
<feGaussianBlur stdDeviation="200" result="effect1_foregroundBlur_127_1841"/>
</filter>
<filter id="filter5_f_127_1841" x="-845.861" y="4644.29" width="1726.19" height="1886.2" filterUnits="userSpaceOnUse" color-interpolation-filters="sRGB">
<feFlood flood-opacity="0" result="BackgroundImageFix"/>
<feBlend mode="normal" in="SourceGraphic" in2="BackgroundImageFix" result="shape"/>
<feGaussianBlur stdDeviation="200" result="effect1_foregroundBlur_127_1841"/>
</filter>
<filter id="filter6_f_127_1841" x="659.139" y="1072.29" width="1726.19" height="1886.2" filterUnits="userSpaceOnUse" color-interpolation-filters="sRGB">
<feFlood flood-opacity="0" result="BackgroundImageFix"/>
<feBlend mode="normal" in="SourceGraphic" in2="BackgroundImageFix" result="shape"/>
<feGaussianBlur stdDeviation="200" result="effect1_foregroundBlur_127_1841"/>
</filter>
<filter id="filter7_f_127_1841" x="-619.074" y="12471.9" width="1756.08" height="1759.27" filterUnits="userSpaceOnUse" color-interpolation-filters="sRGB">
<feFlood flood-opacity="0" result="BackgroundImageFix"/>
<feBlend mode="normal" in="SourceGraphic" in2="BackgroundImageFix" result="shape"/>
<feGaussianBlur stdDeviation="200" result="effect1_foregroundBlur_127_1841"/>
</filter>
<filter id="filter8_f_127_1841" x="-374.093" y="1602.96" width="1814.04" height="1814.03" filterUnits="userSpaceOnUse" color-interpolation-filters="sRGB">
<feFlood flood-opacity="0" result="BackgroundImageFix"/>
<feBlend mode="normal" in="SourceGraphic" in2="BackgroundImageFix" result="shape"/>
<feGaussianBlur stdDeviation="200" result="effect1_foregroundBlur_127_1841"/>
</filter>
<filter id="filter9_f_127_1841" x="134.831" y="4386.77" width="2031.16" height="2098.96" filterUnits="userSpaceOnUse" color-interpolation-filters="sRGB">
<feFlood flood-opacity="0" result="BackgroundImageFix"/>
<feBlend mode="normal" in="SourceGraphic" in2="BackgroundImageFix" result="shape"/>
<feGaussianBlur stdDeviation="200" result="effect1_foregroundBlur_127_1841"/>
</filter>
<filter id="filter10_f_127_1841" x="-774.135" y="1886.63" width="1336.04" height="1591.28" filterUnits="userSpaceOnUse" color-interpolation-filters="sRGB">
<feFlood flood-opacity="0" result="BackgroundImageFix"/>
<feBlend mode="normal" in="SourceGraphic" in2="BackgroundImageFix" result="shape"/>
<feGaussianBlur stdDeviation="200" result="effect1_foregroundBlur_127_1841"/>
</filter>
<filter id="filter11_f_127_1841" x="834.364" y="5179.18" width="1598.45" height="1423.1" filterUnits="userSpaceOnUse" color-interpolation-filters="sRGB">
<feFlood flood-opacity="0" result="BackgroundImageFix"/>
<feBlend mode="normal" in="SourceGraphic" in2="BackgroundImageFix" result="shape"/>
<feGaussianBlur stdDeviation="200" result="effect1_foregroundBlur_127_1841"/>
</filter>
<filter id="filter12_f_127_1841" x="277.343" y="2047.45" width="1202.01" height="1202.01" filterUnits="userSpaceOnUse" color-interpolation-filters="sRGB">
<feFlood flood-opacity="0" result="BackgroundImageFix"/>
<feBlend mode="normal" in="SourceGraphic" in2="BackgroundImageFix" result="shape"/>
<feGaussianBlur stdDeviation="200" result="effect1_foregroundBlur_127_1841"/>
</filter>
<filter id="filter13_f_127_1841" x="685.857" y="4287.77" width="1208.64" height="1307.76" filterUnits="userSpaceOnUse" color-interpolation-filters="sRGB">
<feFlood flood-opacity="0" result="BackgroundImageFix"/>
<feBlend mode="normal" in="SourceGraphic" in2="BackgroundImageFix" result="shape"/>
<feGaussianBlur stdDeviation="200" result="effect1_foregroundBlur_127_1841"/>
</filter>
<filter id="filter14_f_127_1841" x="-626.904" y="3914.94" width="1208.64" height="1307.76" filterUnits="userSpaceOnUse" color-interpolation-filters="sRGB">
<feFlood flood-opacity="0" result="BackgroundImageFix"/>
<feBlend mode="normal" in="SourceGraphic" in2="BackgroundImageFix" result="shape"/>
<feGaussianBlur stdDeviation="200" result="effect1_foregroundBlur_127_1841"/>
</filter>
<filter id="filter15_f_127_1841" x="110.907" y="-294.037" width="1814.04" height="1814.04" filterUnits="userSpaceOnUse" color-interpolation-filters="sRGB">
<feFlood flood-opacity="0" result="BackgroundImageFix"/>
<feBlend mode="normal" in="SourceGraphic" in2="BackgroundImageFix" result="shape"/>
<feGaussianBlur stdDeviation="200" result="effect1_foregroundBlur_127_1841"/>
</filter>
<filter id="filter16_f_127_1841" x="-323.231" y="9708.67" width="1722.3" height="1637.42" filterUnits="userSpaceOnUse" color-interpolation-filters="sRGB">
<feFlood flood-opacity="0" result="BackgroundImageFix"/>
<feBlend mode="normal" in="SourceGraphic" in2="BackgroundImageFix" result="shape"/>
<feGaussianBlur stdDeviation="200" result="effect1_foregroundBlur_127_1841"/>
</filter>
<filter id="filter17_f_127_1841" x="367.553" y="12109.3" width="2139.47" height="1984.27" filterUnits="userSpaceOnUse" color-interpolation-filters="sRGB">
<feFlood flood-opacity="0" result="BackgroundImageFix"/>
<feBlend mode="normal" in="SourceGraphic" in2="BackgroundImageFix" result="shape"/>
<feGaussianBlur stdDeviation="200" result="effect1_foregroundBlur_127_1841"/>
</filter>
<filter id="filter18_f_127_1841" x="725.553" y="609.303" width="2139.47" height="1984.26" filterUnits="userSpaceOnUse" color-interpolation-filters="sRGB">
<feFlood flood-opacity="0" result="BackgroundImageFix"/>
<feBlend mode="normal" in="SourceGraphic" in2="BackgroundImageFix" result="shape"/>
<feGaussianBlur stdDeviation="200" result="effect1_foregroundBlur_127_1841"/>
</filter>
<filter id="filter19_f_127_1841" x="1089.29" y="11060.6" width="1730.43" height="1981.48" filterUnits="userSpaceOnUse" color-interpolation-filters="sRGB">
<feFlood flood-opacity="0" result="BackgroundImageFix"/>
<feBlend mode="normal" in="SourceGraphic" in2="BackgroundImageFix" result="shape"/>
<feGaussianBlur stdDeviation="200" result="effect1_foregroundBlur_127_1841"/>
</filter>
<filter id="filter20_f_127_1841" x="-289.135" y="-10.3672" width="1336.04" height="1591.28" filterUnits="userSpaceOnUse" color-interpolation-filters="sRGB">
<feFlood flood-opacity="0" result="BackgroundImageFix"/>
<feBlend mode="normal" in="SourceGraphic" in2="BackgroundImageFix" result="shape"/>
<feGaussianBlur stdDeviation="200" result="effect1_foregroundBlur_127_1841"/>
</filter>
<filter id="filter21_f_127_1841" x="-88.7197" y="9910.51" width="1433.3" height="2016.53" filterUnits="userSpaceOnUse" color-interpolation-filters="sRGB">
<feFlood flood-opacity="0" result="BackgroundImageFix"/>
<feBlend mode="normal" in="SourceGraphic" in2="BackgroundImageFix" result="shape"/>
<feGaussianBlur stdDeviation="200" result="effect1_foregroundBlur_127_1841"/>
</filter>
<filter id="filter22_f_127_1841" x="-850.033" y="9452.52" width="1271.77" height="1721.78" filterUnits="userSpaceOnUse" color-interpolation-filters="sRGB">
<feFlood flood-opacity="0" result="BackgroundImageFix"/>
<feBlend mode="normal" in="SourceGraphic" in2="BackgroundImageFix" result="shape"/>
<feGaussianBlur stdDeviation="200" result="effect1_foregroundBlur_127_1841"/>
</filter>
<filter id="filter23_f_127_1841" x="762.343" y="150.455" width="1202.01" height="1202.01" filterUnits="userSpaceOnUse" color-interpolation-filters="sRGB">
<feFlood flood-opacity="0" result="BackgroundImageFix"/>
<feBlend mode="normal" in="SourceGraphic" in2="BackgroundImageFix" result="shape"/>
<feGaussianBlur stdDeviation="200" result="effect1_foregroundBlur_127_1841"/>
</filter>
<filter id="filter24_f_127_1841" x="1033.5" y="9784.87" width="1274.96" height="1418.06" filterUnits="userSpaceOnUse" color-interpolation-filters="sRGB">
<feFlood flood-opacity="0" result="BackgroundImageFix"/>
<feBlend mode="normal" in="SourceGraphic" in2="BackgroundImageFix" result="shape"/>
<feGaussianBlur stdDeviation="200" result="effect1_foregroundBlur_127_1841"/>
</filter>
<filter id="filter25_f_127_1841" x="75.3799" y="8679.87" width="1153.82" height="1268.31" filterUnits="userSpaceOnUse" color-interpolation-filters="sRGB">
<feFlood flood-opacity="0" result="BackgroundImageFix"/>
<feBlend mode="normal" in="SourceGraphic" in2="BackgroundImageFix" result="shape"/>
<feGaussianBlur stdDeviation="200" result="effect1_foregroundBlur_127_1841"/>
</filter>
<filter id="filter26_f_127_1841" x="857.769" y="8403.67" width="1722.3" height="1637.42" filterUnits="userSpaceOnUse" color-interpolation-filters="sRGB">
<feFlood flood-opacity="0" result="BackgroundImageFix"/>
<feBlend mode="normal" in="SourceGraphic" in2="BackgroundImageFix" result="shape"/>
<feGaussianBlur stdDeviation="200" result="effect1_foregroundBlur_127_1841"/>
</filter>
<filter id="filter27_f_127_1841" x="-871.23" y="8159.67" width="1722.29" height="1637.42" filterUnits="userSpaceOnUse" color-interpolation-filters="sRGB">
<feFlood flood-opacity="0" result="BackgroundImageFix"/>
<feBlend mode="normal" in="SourceGraphic" in2="BackgroundImageFix" result="shape"/>
<feGaussianBlur stdDeviation="200" result="effect1_foregroundBlur_127_1841"/>
</filter>
<linearGradient id="paint0_linear_127_1841" x1="465.973" y1="0" x2="465.973" y2="1180.22" gradientUnits="userSpaceOnUse">
<stop stop-color="#E0D8FF"/>
<stop offset="1" stop-color="#FF41F2"/>
</linearGradient>
<linearGradient id="paint1_linear_127_1841" x1="463.973" y1="0" x2="463.973" y2="1084.63" gradientUnits="userSpaceOnUse">
<stop stop-color="#E0D8FF"/>
<stop offset="1" stop-color="#FF41F2"/>
</linearGradient>
<linearGradient id="paint2_linear_127_1841" x1="463.973" y1="0" x2="463.973" y2="1084.63" gradientUnits="userSpaceOnUse">
<stop stop-color="#E0D8FF"/>
<stop offset="1" stop-color="#FF41F2"/>
</linearGradient>
<linearGradient id="paint3_linear_127_1841" x1="463.973" y1="0" x2="463.973" y2="1084.63" gradientUnits="userSpaceOnUse">
<stop stop-color="#E0D8FF"/>
<stop offset="1" stop-color="#FF41F2"/>
</linearGradient>
<linearGradient id="paint4_linear_127_1841" x1="463.973" y1="0" x2="463.973" y2="1084.63" gradientUnits="userSpaceOnUse">
<stop stop-color="#E0D8FF"/>
<stop offset="1" stop-color="#FF41F2"/>
</linearGradient>
<linearGradient id="paint5_linear_127_1841" x1="463.973" y1="0" x2="463.973" y2="1084.63" gradientUnits="userSpaceOnUse">
<stop stop-color="#E0D8FF"/>
<stop offset="1" stop-color="#FF41F2"/>
</linearGradient>
<linearGradient id="paint6_linear_127_1841" x1="479.151" y1="0" x2="479.151" y2="956.973" gradientUnits="userSpaceOnUse">
<stop stop-color="#E0D8FF"/>
<stop offset="1" stop-color="#FF41F2"/>
</linearGradient>
<linearGradient id="paint7_linear_127_1841" x1="532.924" y1="2002.98" x2="532.924" y2="3016.98" gradientUnits="userSpaceOnUse">
<stop stop-color="#E0D8FF"/>
<stop offset="1" stop-color="#FF41F2"/>
</linearGradient>
<linearGradient id="paint8_linear_127_1841" x1="646.28" y1="0" x2="646.28" y2="1237.2" gradientUnits="userSpaceOnUse">
<stop stop-color="#E0D8FF"/>
<stop offset="1" stop-color="#FF41F2"/>
</linearGradient>
<linearGradient id="paint9_linear_127_1841" x1="1017.92" y1="105.981" x2="1017.92" y2="1119.98" gradientUnits="userSpaceOnUse">
<stop stop-color="#E0D8FF"/>
<stop offset="1" stop-color="#FF41F2"/>
</linearGradient>
<linearGradient id="paint10_linear_127_1841" x1="403.334" y1="0" x2="403.334" y2="948.896" gradientUnits="userSpaceOnUse">
<stop stop-color="#60519D"/>
<stop offset="1" stop-color="#FF41F2"/>
</linearGradient>
<linearGradient id="paint11_linear_127_1841" x1="671.473" y1="0" x2="671.473" y2="1180.22" gradientUnits="userSpaceOnUse">
<stop stop-color="#E0D8FF"/>
<stop offset="1" stop-color="#FF41F2"/>
</linearGradient>
<linearGradient id="paint12_linear_127_1841" x1="671.473" y1="0" x2="671.473" y2="1180.22" gradientUnits="userSpaceOnUse">
<stop stop-color="#E0D8FF"/>
<stop offset="1" stop-color="#FF41F2"/>
</linearGradient>
<linearGradient id="paint13_linear_127_1841" x1="465.973" y1="0" x2="465.973" y2="1180.22" gradientUnits="userSpaceOnUse">
<stop stop-color="#E0D8FF"/>
<stop offset="1" stop-color="#FF41F2"/>
</linearGradient>
<linearGradient id="paint14_linear_127_1841" x1="403.334" y1="0" x2="403.334" y2="948.896" gradientUnits="userSpaceOnUse">
<stop stop-color="#60519D"/>
<stop offset="1" stop-color="#FF41F2"/>
</linearGradient>
<linearGradient id="paint15_linear_127_1841" x1="403.334" y1="0" x2="403.334" y2="948.896" gradientUnits="userSpaceOnUse">
<stop stop-color="#60519D"/>
<stop offset="1" stop-color="#FF41F2"/>
</linearGradient>
<clipPath id="clip0_127_1841">
<rect width="1920" height="13392" fill="white"/>
</clipPath>
</defs>
</svg>
